<mxfile host="app.diagrams.net" modified="2023-09-30T21:08:46.903Z" agent="Mozilla/5.0 (Windows NT 10.0; Win64; x64) AppleWebKit/537.36 (KHTML, like Gecko) Chrome/117.0.0.0 Safari/537.36" etag="ZTIPFVDopjuJb24Al5XI" version="21.8.2" type="device">
  <diagram name="PÃ¡gina-1" id="x-c9rk_8KfQUm2tqk9iQ">
    <mxGraphModel dx="794" dy="442" grid="1" gridSize="10" guides="1" tooltips="1" connect="1" arrows="1" fold="1" page="1" pageScale="1" pageWidth="827" pageHeight="1169" math="0" shadow="0">
      <root>
        <mxCell id="0" />
        <mxCell id="1" parent="0" />
        <mxCell id="yaw2RbIn9oVfpeFohI4N-23" style="edgeStyle=orthogonalEdgeStyle;rounded=0;orthogonalLoop=1;jettySize=auto;html=1;exitX=0.25;exitY=0;exitDx=0;exitDy=0;entryX=0.5;entryY=1;entryDx=0;entryDy=0;" edge="1" parent="1" source="yaw2RbIn9oVfpeFohI4N-1" target="yaw2RbIn9oVfpeFohI4N-11">
          <mxGeometry relative="1" as="geometry" />
        </mxCell>
        <mxCell id="yaw2RbIn9oVfpeFohI4N-25" style="edgeStyle=orthogonalEdgeStyle;rounded=0;orthogonalLoop=1;jettySize=auto;html=1;exitX=0.5;exitY=0;exitDx=0;exitDy=0;entryX=0.5;entryY=1;entryDx=0;entryDy=0;" edge="1" parent="1" source="yaw2RbIn9oVfpeFohI4N-1" target="yaw2RbIn9oVfpeFohI4N-12">
          <mxGeometry relative="1" as="geometry" />
        </mxCell>
        <mxCell id="yaw2RbIn9oVfpeFohI4N-1" value="NewIphone" style="swimlane;fontStyle=1;align=center;verticalAlign=top;childLayout=stackLayout;horizontal=1;startSize=26;horizontalStack=0;resizeParent=1;resizeParentMax=0;resizeLast=0;collapsible=1;marginBottom=0;whiteSpace=wrap;html=1;" vertex="1" parent="1">
          <mxGeometry x="315" y="200" width="230" height="230" as="geometry" />
        </mxCell>
        <mxCell id="yaw2RbIn9oVfpeFohI4N-2" value="- IControleDeVolume: ControleDeVolume" style="text;strokeColor=none;fillColor=none;align=left;verticalAlign=top;spacingLeft=4;spacingRight=4;overflow=hidden;rotatable=0;points=[[0,0.5],[1,0.5]];portConstraint=eastwest;whiteSpace=wrap;html=1;" vertex="1" parent="yaw2RbIn9oVfpeFohI4N-1">
          <mxGeometry y="26" width="230" height="26" as="geometry" />
        </mxCell>
        <mxCell id="yaw2RbIn9oVfpeFohI4N-3" value="" style="line;strokeWidth=1;fillColor=none;align=left;verticalAlign=middle;spacingTop=-1;spacingLeft=3;spacingRight=3;rotatable=0;labelPosition=right;points=[];portConstraint=eastwest;strokeColor=inherit;" vertex="1" parent="yaw2RbIn9oVfpeFohI4N-1">
          <mxGeometry y="52" width="230" height="8" as="geometry" />
        </mxCell>
        <mxCell id="yaw2RbIn9oVfpeFohI4N-4" value="&lt;div&gt;+ aumentarVolume()&lt;/div&gt;&lt;div&gt;+ diminuirVolume()&lt;/div&gt;&lt;div&gt;+ getVolume(): int&lt;/div&gt;&lt;div&gt;+ efetuarLigacao()&lt;/div&gt;&lt;div&gt;+ atenderLigacao()&lt;/div&gt;&lt;div&gt;+ iniciarCorreioDeVoz()&lt;/div&gt;&lt;div&gt;+ exibirPagina()&lt;/div&gt;&lt;div&gt;+ adicionarNovaAba()&lt;/div&gt;&lt;div&gt;+ atualizarPagina()&lt;/div&gt;&lt;div&gt;+ selecionarMidia()&lt;/div&gt;&lt;div&gt;+ reproduzirMidia()&lt;/div&gt;" style="text;strokeColor=none;fillColor=none;align=left;verticalAlign=top;spacingLeft=4;spacingRight=4;overflow=hidden;rotatable=0;points=[[0,0.5],[1,0.5]];portConstraint=eastwest;whiteSpace=wrap;html=1;" vertex="1" parent="yaw2RbIn9oVfpeFohI4N-1">
          <mxGeometry y="60" width="230" height="170" as="geometry" />
        </mxCell>
        <mxCell id="yaw2RbIn9oVfpeFohI4N-5" value="&lt;p style=&quot;margin:0px;margin-top:4px;text-align:center;&quot;&gt;&lt;i&gt;&amp;lt;&amp;lt;Interface&amp;gt;&amp;gt;&lt;/i&gt;&lt;br&gt;&lt;b&gt;ControleDeVolume&lt;/b&gt;&lt;/p&gt;&lt;hr size=&quot;1&quot;&gt;&lt;p style=&quot;margin:0px;margin-left:4px;&quot;&gt;&amp;nbsp;+ aumentarVolume()&lt;/p&gt;&lt;p style=&quot;margin:0px;margin-left:4px;&quot;&gt;&amp;nbsp;+ diminuirVolume()&lt;br/&gt;&lt;br&gt;&lt;/p&gt;" style="verticalAlign=top;align=left;overflow=fill;fontSize=12;fontFamily=Helvetica;html=1;whiteSpace=wrap;" vertex="1" parent="1">
          <mxGeometry x="610" y="30" width="190" height="80" as="geometry" />
        </mxCell>
        <mxCell id="yaw2RbIn9oVfpeFohI4N-22" style="edgeStyle=orthogonalEdgeStyle;rounded=0;orthogonalLoop=1;jettySize=auto;html=1;exitX=0.5;exitY=0;exitDx=0;exitDy=0;entryX=0.5;entryY=1;entryDx=0;entryDy=0;" edge="1" parent="1" source="yaw2RbIn9oVfpeFohI4N-6" target="yaw2RbIn9oVfpeFohI4N-5">
          <mxGeometry relative="1" as="geometry" />
        </mxCell>
        <mxCell id="yaw2RbIn9oVfpeFohI4N-6" value="ControleDeVolumeImpl" style="swimlane;fontStyle=1;align=center;verticalAlign=top;childLayout=stackLayout;horizontal=1;startSize=26;horizontalStack=0;resizeParent=1;resizeParentMax=0;resizeLast=0;collapsible=1;marginBottom=0;whiteSpace=wrap;html=1;" vertex="1" parent="1">
          <mxGeometry x="625" y="210" width="160" height="86" as="geometry" />
        </mxCell>
        <mxCell id="yaw2RbIn9oVfpeFohI4N-7" value="&amp;nbsp;- volume() int" style="text;strokeColor=none;fillColor=none;align=left;verticalAlign=top;spacingLeft=4;spacingRight=4;overflow=hidden;rotatable=0;points=[[0,0.5],[1,0.5]];portConstraint=eastwest;whiteSpace=wrap;html=1;" vertex="1" parent="yaw2RbIn9oVfpeFohI4N-6">
          <mxGeometry y="26" width="160" height="26" as="geometry" />
        </mxCell>
        <mxCell id="yaw2RbIn9oVfpeFohI4N-8" value="" style="line;strokeWidth=1;fillColor=none;align=left;verticalAlign=middle;spacingTop=-1;spacingLeft=3;spacingRight=3;rotatable=0;labelPosition=right;points=[];portConstraint=eastwest;strokeColor=inherit;" vertex="1" parent="yaw2RbIn9oVfpeFohI4N-6">
          <mxGeometry y="52" width="160" height="8" as="geometry" />
        </mxCell>
        <mxCell id="yaw2RbIn9oVfpeFohI4N-9" value="&amp;nbsp;+ getVolume()" style="text;strokeColor=none;fillColor=none;align=left;verticalAlign=top;spacingLeft=4;spacingRight=4;overflow=hidden;rotatable=0;points=[[0,0.5],[1,0.5]];portConstraint=eastwest;whiteSpace=wrap;html=1;" vertex="1" parent="yaw2RbIn9oVfpeFohI4N-6">
          <mxGeometry y="60" width="160" height="26" as="geometry" />
        </mxCell>
        <mxCell id="yaw2RbIn9oVfpeFohI4N-10" value="&lt;p style=&quot;margin:0px;margin-top:4px;text-align:center;&quot;&gt;&lt;i&gt;&amp;lt;&amp;lt;Interface&amp;gt;&amp;gt;&lt;/i&gt;&lt;br&gt;&lt;b&gt;ReprodutorDeMidias&lt;/b&gt;&lt;/p&gt;&lt;hr size=&quot;1&quot;&gt;&lt;p style=&quot;margin:0px;margin-left:4px;&quot;&gt;&amp;nbsp;+ selecionarMidia(String midia)&lt;/p&gt;&lt;p style=&quot;margin:0px;margin-left:4px;&quot;&gt;&amp;nbsp;+ reproduzirMidia()&lt;br&gt;&amp;nbsp;+ pausarMidia()&lt;/p&gt;" style="verticalAlign=top;align=left;overflow=fill;fontSize=12;fontFamily=Helvetica;html=1;whiteSpace=wrap;" vertex="1" parent="1">
          <mxGeometry x="60" y="210" width="190" height="100" as="geometry" />
        </mxCell>
        <mxCell id="yaw2RbIn9oVfpeFohI4N-11" value="&lt;p style=&quot;margin:0px;margin-top:4px;text-align:center;&quot;&gt;&lt;i&gt;&amp;lt;&amp;lt;Interface&amp;gt;&amp;gt;&lt;/i&gt;&lt;br&gt;ChamadaTelefonica&lt;/p&gt;&lt;hr size=&quot;1&quot;&gt;&lt;p style=&quot;margin:0px;margin-left:4px;&quot;&gt;&amp;nbsp;+ efetuarLigacao()&lt;/p&gt;&lt;p style=&quot;margin:0px;margin-left:4px;&quot;&gt;&amp;nbsp;+ receberLigacao()&lt;br&gt;&amp;nbsp;+ acessarCorreioDeVoz()&lt;/p&gt;" style="verticalAlign=top;align=left;overflow=fill;fontSize=12;fontFamily=Helvetica;html=1;whiteSpace=wrap;" vertex="1" parent="1">
          <mxGeometry x="60" y="20" width="190" height="90" as="geometry" />
        </mxCell>
        <mxCell id="yaw2RbIn9oVfpeFohI4N-12" value="&lt;p style=&quot;margin:0px;margin-top:4px;text-align:center;&quot;&gt;&lt;i&gt;&amp;lt;&amp;lt;Interface&amp;gt;&amp;gt;&lt;/i&gt;&lt;br&gt;NavegadorInternet&lt;/p&gt;&lt;hr size=&quot;1&quot;&gt;&lt;p style=&quot;margin:0px;margin-left:4px;&quot;&gt;&amp;nbsp;+ exibirPagina()&lt;/p&gt;&lt;p style=&quot;margin:0px;margin-left:4px;&quot;&gt;&amp;nbsp;+ atualizarPagina()&lt;br&gt;&amp;nbsp;+ adicionarNovaAba()&lt;/p&gt;" style="verticalAlign=top;align=left;overflow=fill;fontSize=12;fontFamily=Helvetica;html=1;whiteSpace=wrap;" vertex="1" parent="1">
          <mxGeometry x="330" y="20" width="190" height="100" as="geometry" />
        </mxCell>
        <mxCell id="yaw2RbIn9oVfpeFohI4N-20" style="edgeStyle=orthogonalEdgeStyle;rounded=0;orthogonalLoop=1;jettySize=auto;html=1;exitX=0;exitY=0.5;exitDx=0;exitDy=0;" edge="1" parent="1" source="yaw2RbIn9oVfpeFohI4N-4" target="yaw2RbIn9oVfpeFohI4N-10">
          <mxGeometry relative="1" as="geometry" />
        </mxCell>
        <mxCell id="yaw2RbIn9oVfpeFohI4N-21" style="edgeStyle=orthogonalEdgeStyle;rounded=0;orthogonalLoop=1;jettySize=auto;html=1;exitX=1;exitY=0.5;exitDx=0;exitDy=0;entryX=0.006;entryY=0.769;entryDx=0;entryDy=0;entryPerimeter=0;" edge="1" parent="1" source="yaw2RbIn9oVfpeFohI4N-4" target="yaw2RbIn9oVfpeFohI4N-7">
          <mxGeometry relative="1" as="geometry" />
        </mxCell>
      </root>
    </mxGraphModel>
  </diagram>
</mxfile>
